<svg width="287" height="303" viewBox="0 0 287 303" fill="none" xmlns="http://www.w3.org/2000/svg">
<path fill-rule="evenodd" clip-rule="evenodd" d="M90.8608 0.992982C89.7608 1.24698 86.3858 1.94698 83.3608 2.54598C76.9538 3.81698 63.5518 9.83198 56.8408 14.45C40.2878 25.839 27.3928 46.077 22.9488 67.644C20.6888 78.613 20.6768 110.609 22.9318 112.865C25.2138 115.146 45.5078 115.146 47.7898 112.865C49.0828 111.571 49.3638 108.518 49.3778 95.615C49.3988 77.088 50.8378 68.977 55.9498 58.591C67.3458 35.432 94.1798 24.111 117.356 32.684C134.064 38.864 147.082 54.185 150.888 72.149C151.918 77.01 152.331 86.091 152.344 104.15L152.361 129.364L90.1108 129.65L27.8608 129.936L21.3608 133.044C13.5618 136.774 7.23684 142.953 3.56584 150.429L0.86084 155.936V216.436C0.86084 276.824 0.86484 276.945 3.07884 281.695C6.02884 288.023 13.6428 296.013 19.8408 299.286L24.8608 301.936H100.361H175.861L180.895 299.279C187.933 295.564 194.101 289.238 197.168 282.591C199.248 278.083 199.858 275 200.177 267.393L200.577 257.85L208.935 256.71C214.376 255.968 219.597 254.471 223.892 252.421C230.029 249.492 233.361 249.094 233.361 251.29C233.361 251.794 232.212 252.959 230.807 253.879C228.009 255.712 226.324 259.148 227.153 261.327C228.255 264.22 259.593 299.017 262.655 300.747C265.026 302.086 267.372 302.459 271.662 302.18C276.694 301.851 277.914 301.346 280.865 298.369C285.306 293.888 287.206 287.15 285.544 281.773C284.235 277.534 251.332 239.436 248.981 239.436C248.255 239.436 245.829 240.763 243.591 242.385C240.061 244.941 239.357 245.136 238.288 243.848C237.282 242.636 237.513 241.866 239.549 239.65C246.645 231.926 249.761 222.021 249.178 209.042C248.817 201.021 248.321 199.009 245.012 192.155C240.309 182.412 232.861 174.717 224.167 170.619C217.523 167.487 209.511 165.436 203.919 165.436C200.625 165.436 200.559 165.347 199.545 159.589C197.65 148.83 192.279 140.484 183.697 134.963L179.533 132.284L179.085 101.61C178.723 76.773 178.304 69.626 176.887 64.051C172.588 47.143 165.034 34.166 152.55 22.239C142.088 12.243 131.387 6.13998 117.861 2.45198C113.558 1.27898 94.1538 0.229982 90.8608 0.992982ZM119.861 12.403C138.619 18.281 155.883 33.958 164.345 52.799C170.062 65.527 170.629 69.552 171.105 100.745L171.544 129.553L166.703 129.245L161.861 128.936L161.308 100.936C160.698 70.05 160.061 66.36 153.018 52.936C148.711 44.727 135.589 31.55 127.861 27.672C93.8948 10.628 56.7978 26.612 43.1748 64.161C41.4518 68.912 40.9958 72.995 40.6068 87.186L40.1338 104.436H35.1078H30.0808L30.6248 88.186C31.0788 74.65 31.6048 70.465 33.7778 63.129C41.7368 36.249 60.2538 17.805 85.8608 11.252C95.2338 8.85298 110.14 9.35798 119.861 12.403ZM63.3608 143.749C63.3608 148.305 62.9478 149.457 60.4628 151.839C58.0498 154.15 57.2228 154.433 55.5278 153.526C52.4548 151.881 48.2298 152.219 44.6598 154.396C37.1978 158.945 36.2538 169.2 42.7478 175.152C45.8048 177.954 47.0698 178.436 51.3608 178.436C55.6868 178.436 56.9088 177.96 60.1028 175.033C63.4158 171.997 63.8348 171.062 63.9918 166.353C64.1548 161.484 64.4848 160.812 68.2648 157.673L72.3608 154.27V146.853V139.436H83.8608H95.3608V149.553V159.67L91.5158 163.401C87.1948 167.595 85.9948 171.526 87.4388 176.755C88.5028 180.61 93.0698 185.074 96.9448 186.046C103.281 187.637 111.296 182.528 112.978 175.827C114.007 171.725 111.669 165.767 107.825 162.7L104.361 159.936V149.186V138.436H115.861H127.361V145.82V153.203L131.611 157.041C135.016 160.117 135.892 161.604 136.018 164.527C136.357 172.424 141.46 177.436 149.163 177.436C157.104 177.436 163.408 169.83 161.942 162.018C160.599 154.858 152.19 149.906 145.397 152.274C142.774 153.188 141.99 152.995 139.372 150.791C136.777 148.608 136.361 147.58 136.361 143.347V138.436L153.611 138.446C169.569 138.455 171.236 138.63 175.868 140.787C184.236 144.684 189.419 151.896 190.878 161.674C191.488 165.769 191.331 166.499 189.723 167.045C180.977 170.014 171.673 177.136 166.507 184.816C154.245 203.043 156.241 225.614 171.564 241.994C175.768 246.488 179.364 249.161 184.462 251.581L191.531 254.936L191.044 264.621C190.633 272.802 190.119 275.11 187.735 279.491C186.182 282.343 183.526 285.733 181.833 287.025C175.475 291.875 172.578 292.436 153.893 292.436H136.361V287.509C136.361 280.6 139.12 278.443 147.124 279.095C154.082 279.662 158.696 277.271 160.921 271.946C162.775 267.511 162.737 265.031 160.755 260.853C157.064 253.075 146.465 251.088 140.279 257.015C137.178 259.986 135.214 265.157 136.018 268.234C136.358 269.533 135.147 271.19 131.931 273.825L127.361 277.57V285.003V292.436H115.861H104.361L104.367 281.686C104.374 270.955 104.378 270.933 107.18 269.34C110.187 267.63 113.361 262.031 113.361 258.436C113.361 254.662 110.294 249.558 106.688 247.329C97.6138 241.721 84.7048 250.515 86.9288 260.79C87.7988 264.813 90.8518 269.14 93.3868 269.944C95.1938 270.518 95.3608 271.497 95.3608 281.503V292.436H83.8608H72.3608V285.103V277.771L68.3608 274.556C64.8408 271.727 64.3608 270.838 64.3568 267.139C64.3478 256.249 53.0318 249.814 44.2728 255.716C39.6298 258.846 38.1948 261.968 38.6898 267.874C39.0388 272.045 39.6868 273.346 42.8568 276.252C46.4468 279.542 46.8648 279.668 52.4728 279.16C57.3198 278.72 58.7708 278.97 60.8478 280.605C62.9248 282.238 63.3608 283.437 63.3608 287.509V292.436H45.8288C33.2158 292.436 27.3728 292.05 25.0058 291.061C20.3118 289.1 14.6028 283.798 12.0518 279.031C9.86784 274.95 9.86084 274.739 9.86084 215.936C9.86084 157.359 9.87684 156.907 12.0228 152.936C15.2158 147.03 20.5388 142.412 26.5438 140.338C30.8048 138.866 34.9868 138.495 47.6108 138.469L63.3608 138.436V143.749ZM151.161 161.636C153.094 163.569 152.603 167.224 150.313 167.951C146.213 169.253 143.43 163.66 147.111 161.516C149.383 160.193 149.728 160.203 151.161 161.636ZM54.3208 162.888C56.4028 165.397 55.1658 167.936 51.8608 167.936C48.8088 167.936 47.5728 165.931 48.7448 162.878C49.4598 161.015 52.7708 161.021 54.3208 162.888ZM103.876 171.484C104.234 172.61 103.984 174.185 103.321 174.984C100.658 178.193 95.5868 175.452 96.8458 171.484C97.3018 170.048 98.3518 169.436 100.361 169.436C102.37 169.436 103.42 170.048 103.876 171.484ZM221.407 178.569C229.158 182.815 235.237 189.825 238.34 198.092C241.393 206.225 240.914 217.584 237.18 225.611C233.639 233.224 227.227 239.953 219.898 243.749C214.391 246.601 213.027 246.877 204.361 246.895C196.145 246.913 194.091 246.556 189.165 244.256C166.047 233.461 160.799 202.542 179.071 184.784C187.178 176.905 194.186 174.331 206.407 174.744C214.019 175.001 215.658 175.419 221.407 178.569ZM194.853 183.172C169.248 192.339 167.346 227.57 191.861 238.579C197.913 241.297 208.851 241.574 214.551 239.155C219.467 237.068 226.873 230.122 230.182 224.494C232.554 220.459 232.86 218.903 232.854 210.936C232.846 200.664 231.303 196.709 224.709 190.05C217.161 182.428 204.851 179.592 194.853 183.172ZM213.996 193.117C225.636 199.131 227.762 215.8 218.118 225.444C203.379 240.182 178.8 225.796 184.421 205.721C185.987 200.13 192.171 193.434 197.371 191.699C202.151 190.104 209.353 190.719 213.996 193.117ZM60.8608 198.251C55.8648 200.584 54.0118 202.761 54.8298 205.337C55.7068 208.1 58.5438 208.761 63.3488 207.321C68.0418 205.916 69.9618 206.968 68.8868 210.356C68.5158 211.522 65.0968 215.838 61.2868 219.946C57.4778 224.055 54.3608 228.295 54.3608 229.369C54.3608 233.062 58.0828 234.436 68.0838 234.436C76.0278 234.436 77.6478 234.149 79.3608 232.436C81.6298 230.167 81.7958 229.118 80.3258 226.37C79.5698 224.957 78.2218 224.436 75.3258 224.436C73.1448 224.436 71.3608 224.075 71.3608 223.633C71.3608 223.191 72.7808 220.899 74.5168 218.539C76.6928 215.58 77.8158 212.759 78.1328 209.454C78.5518 205.098 78.2868 204.328 75.2268 201.014C71.0278 196.465 66.5358 195.601 60.8608 198.251ZM134.016 198.895C125.582 201.902 120.934 209.389 121.545 218.984C122.27 230.374 130.575 236.974 138.949 232.815C144.305 230.155 146.861 226.257 146.861 220.748C146.861 216.723 146.424 215.829 143.009 212.878C140.891 211.047 138.191 209.379 137.009 209.173C135.179 208.852 135.305 208.686 137.861 208.047C144.204 206.462 145.361 205.605 145.361 202.493C145.361 197.619 141.251 196.315 134.016 198.895ZM94.9918 200.291C92.7598 202.758 91.5658 214.774 93.3408 216.912C94.0368 217.75 96.0888 218.436 97.9018 218.436C102.712 218.436 104.361 219.352 104.361 222.024C104.361 224.954 100.42 226.239 96.6718 224.532C93.3308 223.01 90.5098 223.996 89.7688 226.946C88.9908 230.045 89.8778 231.336 93.9508 233.038C101.154 236.048 108.82 234.011 112.401 228.137C116.562 221.315 114.109 213.651 106.882 210.891C101.199 208.721 101.082 207.234 106.611 207.453C112.887 207.702 113.192 207.62 114.397 205.369C115.257 203.761 115.149 202.761 113.909 200.869C112.445 198.635 111.675 198.436 104.493 198.436C98.1438 198.436 96.3548 198.785 94.9918 200.291ZM137.361 220.245C137.361 223.086 134.88 225.849 132.983 225.121C130.36 224.115 129.789 221.328 131.89 219.791C134.543 217.851 137.361 218.084 137.361 220.245ZM263.645 268.114C277.754 284.187 277.846 284.34 275.95 288.878C274.363 292.675 270.694 294.337 267.269 292.808C266.189 292.326 259 284.747 251.294 275.967L237.284 260.002L242.572 255.293L247.861 250.585L249.969 252.76C251.128 253.957 257.282 260.866 263.645 268.114ZM103.431 257.02C105.185 259.133 103.435 261.936 100.361 261.936C97.2868 261.936 95.5368 259.133 97.2908 257.02C98.0138 256.149 99.3958 255.436 100.361 255.436C101.326 255.436 102.708 256.149 103.431 257.02ZM55.3608 266.349C55.3608 268.907 52.8578 270.728 50.4088 269.951C47.8598 269.142 47.6458 264.935 50.0848 263.57C52.3328 262.313 55.3608 263.907 55.3608 266.349ZM151.161 263.636C153.094 265.569 152.603 269.224 150.313 269.951C146.213 271.253 143.43 265.66 147.111 263.516C149.383 262.193 149.728 262.203 151.161 263.636Z" fill="black" fill-opacity="0.2"/>
</svg>
